<svg id="Layer_1" data-name="Layer 1" xmlns="http://www.w3.org/2000/svg" viewBox="0 0 451.43 73.96"><defs><style>.cls-1{fill:#603913;}.cls-15,.cls-16,.cls-2,.cls-3{fill:#e6e7e8;}.cls-10,.cls-13,.cls-14,.cls-15,.cls-16,.cls-2,.cls-3,.cls-5,.cls-6,.cls-7,.cls-8,.cls-9{stroke:#231f20;}.cls-10,.cls-13,.cls-15,.cls-16,.cls-2,.cls-3,.cls-5,.cls-6,.cls-7,.cls-8,.cls-9{stroke-miterlimit:10;}.cls-2{stroke-width:0.15px;}.cls-3{stroke-width:0.13px;}.cls-4{fill:#231f20;}.cls-5,.cls-6,.cls-7,.cls-8,.cls-9{fill:#58595b;}.cls-13,.cls-14,.cls-5{stroke-width:0.36px;}.cls-6{stroke-width:0.44px;}.cls-7{stroke-width:0.41px;}.cls-8{stroke-width:0.45px;}.cls-9{stroke-width:0.42px;}.cls-10,.cls-12,.cls-13{fill:#fff;}.cls-10{stroke-width:0.31px;}.cls-11{fill:#939598;opacity:0.25;}.cls-14{fill:none;stroke-linecap:round;stroke-linejoin:round;}.cls-15{stroke-width:0.19px;}.cls-16{stroke-width:0.17px;}</style></defs><title>LeapSheep - Final Marque - Logo</title><path class="cls-1" d="M161.45,270.54H133.89V220.77h8.26v42.8h19.3v7Z" transform="translate(-24.21 -212.93)"/><path class="cls-1" d="M197.83,255H173.6q0.14,4.93,3,7.6t8,2.67a17.56,17.56,0,0,0,10.45-3.4v6.49q-4.86,3.05-12.84,3.05t-12.3-4.84q-4.46-4.84-4.46-13.62,0-8.29,4.91-13.52a16.07,16.07,0,0,1,12.2-5.22q7.29,0,11.28,4.69t4,13V255Zm-7.77-5.69a10.39,10.39,0,0,0-2-6.75,6.85,6.85,0,0,0-5.55-2.41,7.81,7.81,0,0,0-5.88,2.53,11.56,11.56,0,0,0-3,6.63h16.45Z" transform="translate(-24.21 -212.93)"/><path class="cls-1" d="M232.78,270.54H225V265h-0.14a11.76,11.76,0,0,1-10.8,6.39q-5.24,0-8.21-2.85a10,10,0,0,1-3-7.53q0-10.06,11.59-11.73L225,247.77q0-7.6-7.22-7.6a17.14,17.14,0,0,0-11.45,4.37v-7a25,25,0,0,1,13-3.33q13.47,0,13.47,13.26v23.12ZM225,253.08l-7.46,1a11.84,11.84,0,0,0-5.22,1.68q-1.75,1.23-1.75,4.32a4.73,4.73,0,0,0,1.61,3.7,6.25,6.25,0,0,0,4.32,1.44,8,8,0,0,0,6.09-2.59,9.17,9.17,0,0,0,2.41-6.51v-3.09Z" transform="translate(-24.21 -212.93)"/><path class="cls-1" d="M250.79,265.3h-0.14v21.59H242.6V235h8.05v6.25h0.14q4.13-7.08,12.08-7.08,6.77,0,10.55,4.75t3.78,12.77q0,8.89-4.27,14.23a14.12,14.12,0,0,1-11.66,5.34A11.64,11.64,0,0,1,250.79,265.3Zm-0.21-14v4.41a9.41,9.41,0,0,0,2.48,6.59,8.76,8.76,0,0,0,13.33-.78q2.55-3.49,2.55-9.74,0-5.24-2.38-8.21a7.81,7.81,0,0,0-6.44-3,8.68,8.68,0,0,0-6.93,3.05A11.31,11.31,0,0,0,250.58,251.28Z" transform="translate(-24.21 -212.93)"/><path class="cls-1" d="M284,268.56v-8.5a13.06,13.06,0,0,0,2.72,1.88,21.29,21.29,0,0,0,3.35,1.4,26.45,26.45,0,0,0,3.54.89,18.83,18.83,0,0,0,3.26.31q5.2,0,7.76-1.73a5.71,5.71,0,0,0,2.55-5,5.49,5.49,0,0,0-.85-3.07,9,9,0,0,0-2.38-2.38,25.28,25.28,0,0,0-3.59-2.06q-2.07-1-4.43-2.07-2.54-1.35-4.72-2.74a20.12,20.12,0,0,1-3.8-3.07,12.82,12.82,0,0,1-2.53-3.8,12.34,12.34,0,0,1-.92-5,11.44,11.44,0,0,1,1.58-6.09,13.29,13.29,0,0,1,4.16-4.27,19.09,19.09,0,0,1,5.88-2.5,28,28,0,0,1,6.74-.82q7.81,0,11.38,1.77v8.16q-4.23-3.06-10.9-3.05a19.71,19.71,0,0,0-3.66.34,10.82,10.82,0,0,0-3.26,1.15,7,7,0,0,0-2.34,2,5,5,0,0,0-.9,3,5.71,5.71,0,0,0,.69,2.88,7.41,7.41,0,0,0,2,2.22,20.63,20.63,0,0,0,3.26,2q1.93,1,4.46,2.07,2.61,1.35,4.91,2.85a23.37,23.37,0,0,1,4.06,3.3,14.48,14.48,0,0,1,2.77,4,11.75,11.75,0,0,1,1,5,12.45,12.45,0,0,1-1.53,6.39,12.31,12.31,0,0,1-4.11,4.23,18.25,18.25,0,0,1-6,2.36,33.54,33.54,0,0,1-7.11.73,30.66,30.66,0,0,1-3.07-.19q-1.82-.19-3.73-0.56a34.67,34.67,0,0,1-3.61-.89A11.35,11.35,0,0,1,284,268.56Z" transform="translate(-24.21 -212.93)"/><path class="cls-1" d="M355.71,270.54h-8.05V251.11q0-10.55-7-10.55a7.38,7.38,0,0,0-6,3.05,12.17,12.17,0,0,0-2.43,7.81v19.13h-8.08V217.92h8.08v23h0.14q4-6.73,11.52-6.73,11.84,0,11.84,14.47v21.9Z" transform="translate(-24.21 -212.93)"/><path class="cls-1" d="M395.6,255H371.37q0.14,4.93,3,7.6t8,2.67a17.56,17.56,0,0,0,10.45-3.4v6.49Q388,271.38,380,271.38t-12.3-4.84q-4.46-4.84-4.46-13.62,0-8.29,4.91-13.52a16.06,16.06,0,0,1,12.2-5.22q7.29,0,11.28,4.69t4,13V255Zm-7.78-5.69a10.36,10.36,0,0,0-2-6.75,6.84,6.84,0,0,0-5.55-2.41,7.81,7.81,0,0,0-5.88,2.53,11.56,11.56,0,0,0-3,6.63h16.45Z" transform="translate(-24.21 -212.93)"/><path class="cls-1" d="M433.36,255H409.13q0.14,4.93,3,7.6t8,2.67a17.56,17.56,0,0,0,10.45-3.4v6.49q-4.86,3.05-12.84,3.05t-12.3-4.84Q401,261.69,401,252.91q0-8.29,4.91-13.52a16.06,16.06,0,0,1,12.2-5.22q7.29,0,11.28,4.69t4,13V255Zm-7.78-5.69a10.37,10.37,0,0,0-2-6.75A6.84,6.84,0,0,0,418,240.1a7.81,7.81,0,0,0-5.88,2.53,11.56,11.56,0,0,0-3,6.63h16.45Z" transform="translate(-24.21 -212.93)"/><path class="cls-1" d="M449.22,265.3h-0.14v21.59H441V235h8.05v6.25h0.14q4.13-7.08,12.08-7.08,6.77,0,10.55,4.75t3.78,12.77q0,8.89-4.27,14.23a14.12,14.12,0,0,1-11.66,5.34A11.64,11.64,0,0,1,449.22,265.3Zm-0.21-14v4.41a9.42,9.42,0,0,0,2.48,6.59,8.76,8.76,0,0,0,13.33-.78q2.55-3.49,2.55-9.74,0-5.24-2.38-8.21a7.81,7.81,0,0,0-6.44-3,8.68,8.68,0,0,0-6.93,3.05A11.31,11.31,0,0,0,449,251.28Z" transform="translate(-24.21 -212.93)"/><path class="cls-2" d="M108.37,228.18a6,6,0,1,1-6.84-5.1A6,6,0,0,1,108.37,228.18Z" transform="translate(-24.21 -212.93)"/><path class="cls-3" d="M107.57,228.3a5.23,5.23,0,1,1-5.92-4.42A5.23,5.23,0,0,1,107.57,228.3Z" transform="translate(-24.21 -212.93)"/><circle class="cls-4" cx="101.56" cy="230.55" r="1.14" transform="translate(-56.26 -195.95) rotate(-8.26)"/><circle class="cls-4" cx="102.39" cy="228" r="1.42" transform="translate(-55.89 -195.86) rotate(-8.26)"/><path class="cls-5" d="M87.81,223s-0.85-10.86,5-9.77,1.3,5.2,1,5-2.07,3.68-1.51,5S87.81,223,87.81,223Z" transform="translate(-24.21 -212.93)"/><path class="cls-6" d="M35.94,267.59s-9.54,7.9-5.14,12.35,9.76-5.64,9.76-5.64Z" transform="translate(-24.21 -212.93)"/><path class="cls-7" d="M41.51,273.21s-8.76,7.62-4.53,11.7,9-5.51,9-5.51Z" transform="translate(-24.21 -212.93)"/><path class="cls-8" d="M86.17,259.35s12.28,2.38,9.79,8.41-11.6-.29-11.6-0.29Z" transform="translate(-24.21 -212.93)"/><path class="cls-9" d="M83,262.29s10.35,5.44,6.48,10.2-10.31-3.38-10.31-3.38Z" transform="translate(-24.21 -212.93)"/><path class="cls-10" d="M75.17,217.93s-5.53-10.39-15.44-.64c0,0-8.18-5.61-15.93,5.34,0,0-11.42.7-11.86,9.95,0,0-9.28,1.9-5.45,15.06,0,0-6,6.09,2.29,12.51,0,0-2,13.75,10.83,11.92,0,0,1.61,10.79,10.81,5,0,0,11.13,4.55,15.42-4.15,0,0,7.83,3.41,12-4.36,0,0,11.51.7,14-11.14,1.83-8.84-10.61-30.33-10.61-30.33Z" transform="translate(-24.21 -212.93)"/><path class="cls-11" d="M78.54,227.92c-3.74,2,.92.7-0.32,5.21-5.15-.14-1.22,6.62-0.66,9.45,4.47,2.5,5.72,10.86,3.64,13.39-1.88,2-7.45,2.67-9.71,1.07,2.13,2,1.9,5.22,1.22,7.7-2.25,3.36-8.31,3.61-10.54-.38,2.35,11.87-12.69,12.73-14.36,3.87-2.7,2.55-6.89,1.08-9.8-.43-4.42-4-1.89-9.23-.49-10.56-5.95,2.28-12.1-6.59-8.12-10.64-2.68-2.13-4.07-8.31-1.5-11.56-1.9,2.1-3.37,5.87-1.42,12.59,0,0-6,6.09,2.29,12.51,0,0-2,13.75,10.83,11.92,0,0,1.61,10.79,10.81,5,0,0,11.13,4.55,15.42-4.15,0,0,7.83,3.41,12-4.36,0,0,11.51.7,14-11.14,1.76-8.48-10.17-29-10.17-29A17.64,17.64,0,0,0,78.54,227.92Z" transform="translate(-24.21 -212.93)"/><path class="cls-5" d="M85.06,223.13s28.08-.28,28.95,18.7c0,0,.88,14.69-17,15.4-12,.48-19.79-11.89-20.16-14.41C76.8,242.81,62.84,236.93,85.06,223.13Z" transform="translate(-24.21 -212.93)"/><circle class="cls-4" cx="92.21" cy="237.32" r="3.57" transform="translate(-181.88 -24.45) rotate(-57.71)"/><path class="cls-12" d="M94.18,236.43a1.27,1.27,0,0,1-1.77.4A1.28,1.28,0,1,1,94.18,236.43Z" transform="translate(-24.21 -212.93)"/><path class="cls-13" d="M70.49,245.57s1.72,5.21,6.24,3.5c0,0,3.82-1.89,2.71-5.88,0,0,3.69,1.62,6.63-5.22,0,0,.9-3.09-1.27-4.78a5.08,5.08,0,0,0,4.69-3.3s1.38-3.42-.75-5.18c0,0,3.22-1.71,1.22-4.6,0,0-1.3-2-3-.66,0,0-.84-3.74-4.44-3.52,0,0-3,.24-3.11,2.77,0,0-2.25-2.42-6.32,1a7,7,0,0,0-2.23,7.73s-4.4.58-4.9,4.78c0,0-.31,3.31,1.89,4.91,0,0-3.35,2.85-1.61,6.58C66.22,243.73,67.86,246.91,70.49,245.57Z" transform="translate(-24.21 -212.93)"/><path class="cls-11" d="M78.19,238.31c0.93,2.15.77,5-1.7,6.11-2.15.93-.93-2.15-1.74-2.83,0.2,2.22-1.22,3.09-2.76,2.47-2.35-1.28-3.12-5.67-.16-5.94-3.82-1.15-3.28-5.52-1.75-7.29-0.06-.74,2-2.41,4.24-2.61C71.66,226,72,223,72.46,220.29a6.88,6.88,0,0,0-1.62,7.17s-4.4.58-4.9,4.78c0,0-.31,3.31,1.89,4.91,0,0-3.35,2.85-1.61,6.58,0,0,1.64,3.18,4.27,1.84,0,0,1.72,5.21,6.24,3.5,0,0,3.82-1.89,2.71-5.88,0,0,3.69,1.62,6.63-5.22a5.78,5.78,0,0,0,0-3C86,239.68,80.46,243,78.19,238.31Z" transform="translate(-24.21 -212.93)"/><path class="cls-14" d="M94.85,252.4A4.14,4.14,0,0,0,98.54,257" transform="translate(-24.21 -212.93)"/><path class="cls-5" d="M74.9,242.17s-7.69-.85-7.9,2,1.72,5.92,3.24,5.52,4.91-6.28,7.12-5.55S74.9,242.17,74.9,242.17Z" transform="translate(-24.21 -212.93)"/><path class="cls-15" d="M102.32,236.66a7.56,7.56,0,1,1-8.57-6.39A7.56,7.56,0,0,1,102.32,236.66Z" transform="translate(-24.21 -212.93)"/><path class="cls-16" d="M101.31,236.81a6.54,6.54,0,1,1-7.41-5.53A6.54,6.54,0,0,1,101.31,236.81Z" transform="translate(-24.21 -212.93)"/><circle class="cls-4" cx="93.8" cy="239.62" r="1.42" transform="translate(-57.7 -196.94) rotate(-8.27)"/></svg>